<svg width="139" height="189" viewBox="0 0 139 189" fill="none" xmlns="http://www.w3.org/2000/svg">
<g id="arrow" filter="url(#filter0_dd_77_9)">
<path d="M88.0761 41.7134C89.2761 40.6031 90.81 39.9921 92.397 39.9921C96.0437 39.9921 99 43.1528 99 47.0518L99 141.948C99 145.847 96.0437 149.008 92.397 149.008C90.81 149.008 89.2761 148.397 88.0761 147.287L45.8735 108.239C38.0422 100.993 38.0422 88.0068 45.8735 80.7609L88.0761 41.7134Z" fill="#F0F0F3"/>
<path d="M89.0948 42.8145C90.0268 41.9521 91.2001 41.4921 92.397 41.4921C95.1224 41.4921 97.5 43.8852 97.5 47.0518L97.5 141.948C97.5 145.115 95.1224 147.508 92.397 147.508C91.2001 147.508 90.0268 147.048 89.0948 146.186L46.8922 107.138C39.7026 100.486 39.7026 88.514 46.8922 81.8619L89.0948 42.8145Z" stroke="white" stroke-width="3"/>
</g>
<defs>
<filter id="filter0_dd_77_9" x="0" y="-0.00793457" width="139" height="189.016" filterUnits="userSpaceOnUse" color-interpolation-filters="sRGB">
<feFlood flood-opacity="0" result="BackgroundImageFix"/>
<feColorMatrix in="SourceAlpha" type="matrix" values="0 0 0 0 0 0 0 0 0 0 0 0 0 0 0 0 0 0 127 0" result="hardAlpha"/>
<feOffset dx="10" dy="10"/>
<feGaussianBlur stdDeviation="15"/>
<feColorMatrix type="matrix" values="0 0 0 0 0.682353 0 0 0 0 0.682353 0 0 0 0 0.752941 0 0 0 0.4 0"/>
<feBlend mode="normal" in2="BackgroundImageFix" result="effect1_dropShadow_77_9"/>
<feColorMatrix in="SourceAlpha" type="matrix" values="0 0 0 0 0 0 0 0 0 0 0 0 0 0 0 0 0 0 127 0" result="hardAlpha"/>
<feOffset dx="-10" dy="-10"/>
<feGaussianBlur stdDeviation="15"/>
<feColorMatrix type="matrix" values="0 0 0 0 1 0 0 0 0 1 0 0 0 0 1 0 0 0 1 0"/>
<feBlend mode="normal" in2="effect1_dropShadow_77_9" result="effect2_dropShadow_77_9"/>
<feBlend mode="normal" in="SourceGraphic" in2="effect2_dropShadow_77_9" result="shape"/>
</filter>
</defs>
</svg>
