<svg width="91" height="90" viewBox="0 0 91 90" fill="none" xmlns="http://www.w3.org/2000/svg">
<g id="check icon">
<path d="M82.2263 19.8143C81.8195 20.8141 81.4449 21.8298 80.998 22.811C80.3048 24.3384 79.5422 25.8394 78.8544 27.3696C78.7393 27.6241 78.7634 28.0166 78.8731 28.2845C79.5448 29.9286 80.2379 31.5675 80.9819 33.1825C81.1451 33.5325 81.4957 33.9038 81.849 34.047C84.0648 34.9407 86.3047 35.7787 88.5392 36.6193C89.8987 37.1312 90.3723 38.2502 90.3938 39.5205C90.4526 43.1589 90.4607 46.7999 90.3884 50.4383C90.3643 51.6847 89.9228 52.8224 88.5258 53.3289C86.3073 54.1298 84.1049 54.9704 81.9185 55.8508C81.5359 56.0046 81.1532 56.3971 80.9792 56.7763C80.2272 58.386 79.5368 60.0275 78.8651 61.6717C78.7554 61.9369 78.75 62.3294 78.8651 62.5866C79.8071 64.6418 80.7919 66.6758 81.758 68.7204C82.3494 69.9695 82.055 71.603 81.0515 72.5948C78.4985 75.1247 75.9428 77.652 73.3871 80.1739C72.1267 81.4177 70.8368 81.6219 69.207 80.8608C67.2508 79.9485 65.3053 79.0098 63.3223 78.1559C62.945 77.9914 62.3776 78.0498 61.9682 78.1983C60.5124 78.7287 59.1181 79.4526 57.6383 79.8875C56.5625 80.2031 56.3939 81.0172 56.0915 81.7995C55.3582 83.6956 54.6838 85.6103 53.9533 87.5091C53.418 88.8987 52.2673 89.4264 50.865 89.437C47.2175 89.4635 43.57 89.3972 39.9251 89.4715C38.6245 89.498 37.2303 88.6679 36.7111 87.2624C35.9538 85.2099 35.159 83.1706 34.4472 81.1021C34.2572 80.5505 33.9842 80.2853 33.449 80.0838C31.8513 79.4845 30.2938 78.7817 28.6962 78.1903C28.2948 78.0418 27.7275 77.9941 27.3528 78.1585C25.3645 79.0204 23.4136 79.9618 21.4493 80.8767C19.8303 81.6298 18.5511 81.4071 17.2693 80.1421C14.8072 77.7103 12.3479 75.2786 9.88856 72.8415C8.62544 71.5924 8.36586 70.2161 9.11517 68.5931C10.0117 66.6573 10.959 64.7479 11.818 62.7961C11.984 62.4222 11.9732 61.8706 11.8287 61.4808C11.24 59.9109 10.5977 58.3569 9.90462 56.8294C9.73335 56.4502 9.35602 56.0418 8.97869 55.8959C6.90738 55.1003 4.79326 54.4109 2.71393 53.6259C1.51771 53.1777 0.396427 51.9976 0.441921 50.3163C0.538261 46.7469 0.522204 43.1695 0.447273 39.5974C0.41516 38.0354 1.29827 36.8315 2.77548 36.2799C4.82805 35.5135 6.91006 34.8293 8.9546 34.0444C9.33729 33.8985 9.72532 33.5034 9.89659 33.1295C10.6058 31.5728 11.2561 29.9896 11.8716 28.3958C12.0027 28.0537 12.0268 27.5684 11.8823 27.2449C11.0072 25.3037 10.0625 23.3917 9.15263 21.4638C8.3391 19.7401 8.58262 18.3876 9.93673 17.0484C12.372 14.6378 14.8179 12.2379 17.2452 9.81671C18.5832 8.48015 19.8972 8.44038 21.5162 9.12722C23.5099 9.97317 25.4501 10.9358 27.4331 11.803C27.7328 11.9356 28.1797 11.925 28.4955 11.8083C30.2189 11.1745 31.9289 10.5088 33.6202 9.80079C33.9307 9.67085 34.2598 9.34732 34.3803 9.03705C35.159 7.02692 35.927 5.01149 36.6068 2.96953C37.0938 1.50569 38.3783 0.421067 40.1151 0.468801C43.5593 0.566921 47.0061 0.497972 50.4529 0.497972C52.5938 0.497972 53.5893 1.22194 54.3065 3.22146C55.013 5.19181 55.7463 7.15421 56.5089 9.10335C56.6187 9.3871 56.913 9.67881 57.1967 9.80079C58.8318 10.5035 60.483 11.1745 62.1475 11.8056C62.4633 11.925 62.9129 11.9329 63.2153 11.803C65.1956 10.9438 67.1545 10.0421 69.1107 9.13252C70.7271 8.38203 72.2096 8.6101 73.4647 9.85118C75.9508 12.3068 78.4262 14.7704 80.923 17.2128C81.6402 17.9129 82.1514 18.6634 81.9533 19.7242C82.0416 19.7533 82.13 19.7825 82.2209 19.8117L82.2263 19.8143ZM45.0686 68.3996C58.5669 68.5534 69.1509 57.8716 69.1161 45.002C69.0786 31.7611 58.6391 21.9968 46.131 21.5593C39.4916 21.3259 33.6657 23.5137 28.9478 28.0962C23.6063 33.2859 21.1228 39.669 21.7544 47.1394C22.6616 57.9193 32.135 68.3916 45.0686 68.4022V68.3996Z" fill="#03F4AF"/>
<path d="M45.1118 62.0459C35.8096 62.1493 28.9428 54.5092 28.1827 46.8983C27.0374 35.4368 36.3448 28.1282 44.4374 27.8736C55.2248 27.5368 62.3084 35.7232 62.7178 44.0926C63.2129 54.2785 54.6601 62.4092 45.1118 62.0432V62.0459ZM43.0137 45.8959C41.7104 44.5885 40.4206 43.4243 39.2939 42.1249C38.2583 40.9289 35.8257 40.9474 34.9024 41.7907C33.8507 42.7534 33.179 44.7237 34.4368 46.0656C36.5402 48.3117 38.6864 50.5261 40.921 52.6423C42.1761 53.833 44.4588 53.4325 45.3473 52.5468C48.9493 48.9614 52.5567 45.3787 56.1801 41.8146C57.2238 40.7857 57.0632 38.582 56.4906 37.9031C55.0749 36.2138 52.9072 36.1024 51.3283 37.6644C48.5907 40.372 45.8557 43.0822 43.0137 45.8959Z" fill="#03F4AF"/>
</g>
</svg>
