<svg width="32" height="34" viewBox="0 0  32 34" fill="none" xmlns="http://www.w3.org/2000/svg">
<path id="Vector" d="M30.24 0.661377H1.76C1.29322 0.661377 0.845556 0.85073 0.515492 1.18778C0.185428 1.52483 0 1.98197 0 2.45863V31.5414C0 32.018 0.185428 32.4752 0.515492 32.8122C0.845556 33.1493 1.29322 33.3386 1.76 33.3386H17.088V20.6762H12.928V15.7746H17.088V12.0984C17.0018 11.2353 17.1016 10.3635 17.3803 9.54393C17.6591 8.7244 18.11 7.97707 18.7015 7.35435C19.2931 6.73163 20.0108 6.2486 20.8045 5.93914C21.5982 5.62968 22.4486 5.50129 23.296 5.56296C24.5413 5.55418 25.7861 5.61965 27.024 5.75903V10.1705H24.48C22.464 10.1705 22.08 11.1508 22.08 12.5722V15.7256H26.88L26.256 20.6272H22.08V33.3386H30.24C30.4711 33.3386 30.7 33.2921 30.9135 33.2018C31.1271 33.1115 31.3211 32.9791 31.4845 32.8122C31.6479 32.6453 31.7776 32.4472 31.866 32.2292C31.9545 32.0111 32 31.7774 32 31.5414V2.45863C32 2.22261 31.9545 1.9889 31.866 1.77085C31.7776 1.5528 31.6479 1.35467 31.4845 1.18778C31.3211 1.02089 31.1271 0.888505 30.9135 0.798185C30.7 0.707864 30.4711 0.661377 30.24 0.661377Z" fill="#03F4AF"/>
</svg>
