<svg width="32" height="34" viewBox="0 0 32 34" fill="none" xmlns="http://www.w3.org/2000/svg">
<path id="Vector" d="M17.6448 0.661377C19.4447 0.666278 20.3583 0.676081 21.147 0.698955L21.4574 0.710392C21.8158 0.723462 22.1694 0.7398 22.5966 0.759406C24.2989 0.841097 25.4604 1.11558 26.4796 1.51913C27.5355 1.93413 28.4251 2.49616 29.3146 3.40293C30.1285 4.21941 30.7581 5.20744 31.1593 6.29807C31.5545 7.33881 31.8233 8.52497 31.9033 10.265C31.9225 10.6996 31.9385 11.0607 31.9513 11.4283L31.9609 11.7452C31.9849 12.5491 31.9945 13.482 31.9977 15.32L31.9993 16.5389V18.6792C32.0032 19.8709 31.9909 21.0626 31.9625 22.254L31.9529 22.5709C31.9401 22.9386 31.9241 23.2996 31.9049 23.7342C31.8249 25.4742 31.5529 26.6588 31.1593 27.7011C30.7581 28.7918 30.1285 29.7798 29.3146 30.5963C28.5151 31.4274 27.5476 32.0703 26.4796 32.4801C25.4604 32.8836 24.2989 33.1581 22.5966 33.2398L21.4574 33.2888L21.147 33.2986C20.3583 33.3215 19.4447 33.3329 17.6448 33.3362L16.4513 33.3378H14.357C13.1895 33.342 12.0219 33.3295 10.8548 33.3003L10.5444 33.2905C10.1646 33.2758 9.78485 33.2589 9.40524 33.2398C7.70292 33.1581 6.54138 32.8836 5.52063 32.4801C4.45321 32.0701 3.48624 31.4272 2.68717 30.5963C1.87273 29.78 1.24262 28.7919 0.840868 27.7011C0.445688 26.6604 0.176901 25.4742 0.0969051 23.7342L0.0489076 22.5709L0.0409082 22.254C0.0114153 21.0626 -0.00191877 19.8709 0.000910029 18.6792V15.32C-0.00351838 14.1283 0.00821561 12.9366 0.0361084 11.7452L0.0473078 11.4283C0.0601071 11.0607 0.0761063 10.6996 0.0953053 10.265C0.175301 8.52497 0.444088 7.34044 0.839268 6.29807C1.24196 5.207 1.87317 4.21892 2.68877 3.40293C3.48738 2.57221 4.45379 1.92934 5.52063 1.51913C6.54138 1.11558 7.70132 0.841097 9.40524 0.759406C9.83081 0.7398 10.186 0.723462 10.5444 0.710392L10.8548 0.700589C12.0214 0.67156 13.1884 0.659033 14.3554 0.663011L17.6448 0.661377ZM16.0001 8.83049C13.8785 8.83049 11.8438 9.69116 10.3435 11.2232C8.84332 12.7552 8.00051 14.833 8.00051 16.9996C8.00051 19.1662 8.84332 21.244 10.3435 22.776C11.8438 24.308 13.8785 25.1687 16.0001 25.1687C18.1217 25.1687 20.1565 24.308 21.6567 22.776C23.1569 21.244 23.9997 19.1662 23.9997 16.9996C23.9997 14.833 23.1569 12.7552 21.6567 11.2232C20.1565 9.69116 18.1217 8.83049 16.0001 8.83049ZM16.0001 12.0981C16.6304 12.098 17.2546 12.2247 17.837 12.4709C18.4193 12.7172 18.9485 13.0781 19.3943 13.5332C19.84 13.9882 20.1937 14.5285 20.435 15.1231C20.6763 15.7178 20.8006 16.3551 20.8007 16.9988C20.8008 17.6425 20.6767 18.2798 20.4356 18.8746C20.1945 19.4693 19.841 20.0097 19.3954 20.4649C18.9498 20.9201 18.4207 21.2812 17.8384 21.5277C17.2561 21.7741 16.632 21.901 16.0017 21.9011C14.7287 21.9011 13.5079 21.3847 12.6078 20.4655C11.7076 19.5463 11.2019 18.2996 11.2019 16.9996C11.2019 15.6997 11.7076 14.4529 12.6078 13.5337C13.5079 12.6145 14.7287 12.0981 16.0017 12.0981M24.4013 6.37976C23.8709 6.37976 23.3622 6.59492 22.9871 6.97793C22.6121 7.36093 22.4014 7.88039 22.4014 8.42204C22.4014 8.96368 22.6121 9.48314 22.9871 9.86615C23.3622 10.2491 23.8709 10.4643 24.4013 10.4643C24.9317 10.4643 25.4404 10.2491 25.8154 9.86615C26.1905 9.48314 26.4012 8.96368 26.4012 8.42204C26.4012 7.88039 26.1905 7.36093 25.8154 6.97793C25.4404 6.59492 24.9317 6.37976 24.4013 6.37976Z" fill="#03F4AF"/>
</svg>
