<svg width="104" height="104" viewBox="0 0 104 104" fill="none" xmlns="http://www.w3.org/2000/svg">
<path d="M13.8667 61.6286V17.3333C13.8667 15.0347 14.7798 12.8303 16.4051 11.205C18.0304 9.57972 20.2348 8.66663 22.5333 8.66663H81.4667C83.7652 8.66663 85.9696 9.57972 87.5949 11.205C89.2203 12.8303 90.1333 15.0347 90.1333 17.3333V61.6286M13.8667 61.6286H90.1333M13.8667 61.6286L7.45334 84.3093C7.0891 85.5979 7.02843 86.9535 7.27611 88.2695C7.52378 89.5856 8.07306 90.8263 8.88084 91.8944C9.68863 92.9625 10.7329 93.8289 11.9318 94.4255C13.1307 95.0222 14.4515 95.3329 15.7907 95.3333H88.2094C89.5485 95.3329 90.8693 95.0222 92.0682 94.4255C93.2671 93.8289 94.3114 92.9625 95.1192 91.8944C95.927 90.8263 96.4762 89.5856 96.7239 88.2695C96.9716 86.9535 96.9109 85.5979 96.5467 84.3093L90.1333 61.6286" stroke="#03F4AF" stroke-width="4.5"/>
<path d="M47.6667 82.3333H56.3334M60.6667 26L69.3334 34.6667L60.6667 43.3333M43.3334 26L34.6667 34.6667L43.3334 43.3333" stroke="#03F4AF" stroke-width="4.5" stroke-linecap="round" stroke-linejoin="round"/>
</svg>
