<svg width="70" height="77" viewBox="0 0 70 77" fill="none" xmlns="http://www.w3.org/2000/svg">
<g id="phone icon">
<path d="M0.888153 39.0016C0.888153 28.3022 0.888153 17.6029 0.888153 6.90353C0.888153 3.21636 3.09633 0.995913 6.76083 0.991386C7.8875 0.991386 9.01643 1.03213 10.1386 0.977806C10.8724 0.94159 11.2494 1.19962 11.5136 1.8945C12.4168 4.26887 13.3786 6.61833 14.3224 8.97685C14.8327 10.2534 15.1578 10.4798 16.5373 10.4798C22.3671 10.4843 28.1969 10.4843 34.0244 10.4798C35.343 10.4798 35.6952 10.2331 36.1829 9.01533C37.1154 6.68397 38.075 4.36167 38.9533 2.00994C39.2513 1.21547 39.6736 0.930273 40.509 0.975542C41.744 1.04571 42.9858 0.984596 44.2254 0.995913C47.2329 1.02534 49.6036 3.36575 49.6194 6.36256C49.642 10.8238 49.6307 15.2828 49.6239 19.7441C49.6239 20.9256 48.5966 21.5164 47.5602 20.9528C41.1615 17.4739 33.5999 18.4947 28.3888 23.6305C25.6681 26.3104 24.2276 29.6218 24.0831 33.4652C23.8573 39.4814 26.2032 44.3365 30.5992 48.361C34.9614 52.3514 39.7616 55.6538 45.0789 58.216C46.2958 58.8023 47.5354 59.1916 48.9014 58.9924C49.4094 58.9177 49.6284 59.1282 49.6284 59.642C49.6194 63.7909 49.6894 67.9444 49.5878 72.091C49.5223 74.7144 47.0725 76.9258 44.4038 76.9507C41.0238 76.9823 37.646 76.962 34.266 76.962C25.0856 76.962 15.9051 76.9642 6.7247 76.962C3.11665 76.962 0.890411 74.7234 0.890411 71.0996C0.890411 60.4003 0.890411 49.7009 0.890411 39.0016H0.888153Z" fill="#03F4AF"/>
<path d="M39.66 21.494C42.7217 21.451 45.3046 22.3745 47.6009 24.1038C48.1066 24.4863 48.416 24.4433 48.9059 24.0902C53.5503 20.747 59.4636 20.6112 64.1148 23.7054C69.274 27.139 71.218 33.5129 68.9557 39.4726C67.6235 42.9832 65.2686 45.7175 62.4779 48.1077C58.6621 51.3784 54.2661 53.7414 49.8452 56.0569C48.8043 56.6024 47.7409 56.5843 46.6729 56.0909C40.9154 53.4268 35.7607 49.8754 31.2608 45.4051C28.2308 42.3947 26.5893 38.6827 26.6186 34.3911C26.6548 28.943 29.3236 25.0951 34.1847 22.7525C35.9571 21.8991 37.8311 21.4238 39.6555 21.494H39.66Z" fill="#03F4AF"/>
<path d="M25.3159 0.994009C28.7501 0.994009 32.1865 0.991745 35.6207 0.994009C36.5374 0.994009 36.5645 1.03701 36.2258 1.89486C35.5507 3.59924 34.8463 5.29457 34.2005 7.00801C33.9634 7.63725 33.6044 7.85001 32.9384 7.84775C27.8153 7.82511 22.69 7.82738 17.5669 7.84775C16.9505 7.84775 16.5825 7.6712 16.3544 7.06686C15.6839 5.30136 14.9817 3.54492 14.2546 1.7998C13.9724 1.12303 14.1847 0.978165 14.8439 0.982691C18.3346 1.00306 21.8252 0.991745 25.3181 0.994009H25.3159Z" fill="#03F4AF"/>
</g>
</svg>
