<svg width="104" height="104" viewBox="0 0 104 104" fill="none" xmlns="http://www.w3.org/2000/svg">
<path d="M10.8333 41.1243H93.1667M56.3333 58.4576H73.6667M56.3333 75.791H65M30.3333 28.1243H30.3723M47.6667 28.1243H47.7057M39 41.1243V95.291M10.8333 54.1243C10.8333 34.7196 10.8333 25.013 16.861 18.9853C22.8887 12.9576 32.591 12.9576 52 12.9576C71.4047 12.9576 81.1113 12.9576 87.139 18.9853C93.1667 25.013 93.1667 34.7153 93.1667 54.1243C93.1667 73.529 93.1667 83.2356 87.139 89.2633C81.1113 95.291 71.409 95.291 52 95.291C32.5953 95.291 22.8887 95.291 16.861 89.2633C10.8333 83.2356 10.8333 73.5333 10.8333 54.1243Z" stroke="#03F4AF" stroke-width="4.5" stroke-linecap="round" stroke-linejoin="round"/>
</svg>
