<svg width="89" height="65" viewBox="0 0 89 65" fill="none" xmlns="http://www.w3.org/2000/svg">
<g id="website icon">
<path d="M44.6227 0.970459C56.8527 0.970459 69.0862 0.970459 81.3197 0.970459C84.2493 0.970459 86.5201 2.10267 87.8132 4.85084C88.1811 5.63253 88.3353 6.45978 88.3353 7.32559C88.3353 24.4035 88.3388 41.4814 88.3283 58.5628C88.3283 62.1487 85.623 64.7847 81.8594 64.9599C81.565 64.974 81.2706 64.967 80.9763 64.967C56.7055 64.967 32.4382 64.9635 8.16741 64.9494C6.62902 64.9494 5.08713 64.9004 3.68891 64.1082C1.57932 62.9234 0.359825 61.1286 0.35632 58.71C0.328286 41.5655 0.335295 24.421 0.345807 7.27652C0.349312 4.06214 2.83737 1.44718 6.06483 1.11768C7.07757 1.01252 8.08681 0.980975 9.09955 0.980975C20.9406 0.980975 32.7816 0.980975 44.6191 0.980975V0.970459H44.6227ZM44.3003 61.6369V61.6229C47.6363 61.6229 50.9724 61.6229 54.3085 61.6229C63.4022 61.6229 72.4959 61.6159 81.5895 61.6229C82.6934 61.6229 83.6676 61.395 84.3789 60.4837C84.9957 59.695 85.1254 58.7766 85.1254 57.8021C85.1184 41.2465 85.1184 24.6909 85.1184 8.13532C85.1184 7.90747 85.1254 7.67612 85.1113 7.44828C84.9992 5.56943 83.7587 4.35309 81.8874 4.32154C80.5452 4.30051 79.2031 4.36711 77.8645 4.297C76.9744 4.24793 76.4943 4.61949 76.0983 5.36963C74.9664 7.50787 73.7364 9.59703 72.629 11.7493C71.2098 14.508 69.0476 15.7594 65.9113 15.7489C45.5968 15.6928 25.2859 15.7103 4.97148 15.7068C3.99495 15.7068 3.50552 16.1929 3.50318 17.165C3.50318 30.678 3.50318 44.191 3.50318 57.704C3.50318 60.5748 4.56148 61.6404 7.39646 61.6404C19.6966 61.6404 31.9932 61.6404 44.2932 61.6404L44.3003 61.6369ZM12.9262 9.93004C13.6692 9.92303 14.4436 9.13083 14.4296 8.39121C14.4156 7.61653 13.6762 6.89794 12.8912 6.90145C12.0992 6.90145 11.3949 7.62004 11.3984 8.41574C11.3984 9.15887 12.1868 9.93705 12.9262 9.93004ZM19.1534 9.89148C19.9208 9.91602 20.6918 9.19042 20.7058 8.43327C20.7198 7.66911 20.0049 6.92949 19.2235 6.90145C18.442 6.87341 17.7131 7.55694 17.6781 8.35265C17.643 9.09928 18.3754 9.86694 19.1499 9.89148H19.1534ZM25.4296 6.90495C24.6622 6.933 23.9438 7.68664 23.9613 8.44379C23.9823 9.19743 24.7533 9.91602 25.5172 9.89148C26.2917 9.86344 27.0205 9.10279 26.9855 8.35615C26.9505 7.58849 26.19 6.88042 25.4296 6.90495Z" fill="#03F4AF"/>
<path d="M25.4363 38.0777C22.5242 38.0777 19.6122 38.0812 16.7001 38.0777C13.2659 38.0742 11.328 36.1498 11.3245 32.7496C11.3245 30.8182 11.307 28.8868 11.3315 26.9588C11.363 24.4911 13.0802 22.6403 15.5332 22.3248C17.4255 22.0795 19.3213 22.2056 21.2171 22.1916C25.5344 22.1671 29.8552 22.1741 34.1725 22.1846C36.4328 22.1916 38.2761 22.9347 39.2573 25.1536C39.5271 25.7635 39.6428 26.3945 39.6393 27.0605C39.6287 29.0901 39.6428 31.1197 39.6357 33.1457C39.6217 35.971 37.6068 38.0041 34.7613 38.0742C34.6947 38.0742 34.6316 38.0742 34.565 38.0742C31.5233 38.0742 28.4816 38.0742 25.4363 38.0742V38.0777Z" fill="#03F4AF"/>
<path d="M44.3385 55.1521C34.2672 55.1521 24.1958 55.1521 14.1244 55.1521C13.7004 55.1521 13.2694 55.1696 12.8524 55.1065C11.9448 54.9698 11.307 54.2582 11.349 53.4485C11.3981 52.5196 11.9693 52.0429 12.8278 51.8781C13.1467 51.8185 13.4796 51.829 13.8055 51.829C34.1445 51.822 54.4835 51.8185 74.8224 51.8185C75.2114 51.8185 75.6144 51.8185 75.9929 51.9027C76.8129 52.0919 77.3245 52.5932 77.328 53.48C77.3315 54.4195 76.7883 54.9277 75.9228 55.0995C75.5128 55.1801 75.0782 55.1626 74.6542 55.1626C64.5513 55.1626 54.4449 55.1626 44.342 55.1626V55.1521H44.3385Z" fill="#03F4AF"/>
<path d="M44.4261 46.5395C34.2531 46.5395 24.0802 46.5395 13.9107 46.5395C13.5182 46.5395 13.1187 46.5606 12.7367 46.5045C11.8817 46.3748 11.3981 45.8525 11.3525 44.9797C11.3105 44.1524 11.8992 43.5039 12.7718 43.3918C13.0942 43.3497 13.4236 43.3637 13.753 43.3637C34.1305 43.3567 54.508 43.3497 74.8855 43.3497C75.278 43.3497 75.681 43.3217 76.0559 43.4093C76.9005 43.6021 77.3455 44.1769 77.3175 45.0393C77.2895 45.9121 76.7813 46.4203 75.9228 46.5395C75.5688 46.5886 75.2044 46.5606 74.8435 46.5606C64.7055 46.5606 54.5641 46.5606 44.4261 46.5606V46.5395Z" fill="#03F4AF"/>
<path d="M62.1369 25.5217C57.9212 25.5217 53.709 25.5217 49.4933 25.5217C49.199 25.5217 48.9046 25.5322 48.6103 25.5076C47.5695 25.4235 46.9142 24.8416 46.8721 23.9828C46.8301 23.089 47.4714 22.3844 48.5016 22.2302C48.824 22.1811 49.1534 22.1846 49.4793 22.1846C57.8756 22.1846 66.2719 22.1776 74.6682 22.1846C75.1238 22.1846 75.5899 22.2056 76.0279 22.3108C76.904 22.5211 77.4051 23.2117 77.3105 24.0249C77.2054 24.9363 76.6517 25.4481 75.7581 25.5006C74.8119 25.5567 73.8623 25.5252 72.9161 25.5252C69.3207 25.5252 65.7288 25.5252 62.1334 25.5252L62.1369 25.5217Z" fill="#03F4AF"/>
<path d="M62.1088 31.365C66.3911 31.365 70.6733 31.365 74.9556 31.365C75.313 31.365 75.6845 31.344 76.0314 31.4176C76.8304 31.5859 77.2965 32.1082 77.314 32.9284C77.3315 33.7942 76.8619 34.348 76.0174 34.5233C75.6705 34.5969 75.3025 34.5724 74.9416 34.5724C66.3771 34.5724 57.8125 34.5724 49.248 34.5689C47.6431 34.5689 46.9037 34.0781 46.8756 33.009C46.8476 31.8978 47.6115 31.3685 49.2621 31.3685C53.5443 31.3685 57.8266 31.3685 62.1088 31.3685V31.3615V31.365Z" fill="#03F4AF"/>
</g>
</svg>
